<svg xmlns="http://www.w3.org/2000/svg" viewBox="0 0 32 32" class="support-icon"><linearGradient id="a" x1="1" x2="27.007" y1="18.499" y2="18.499" gradientUnits="userSpaceOnUse"><stop offset="0" stop-color="#ea6434"></stop><stop offset="1" stop-color="#e57200"></stop></linearGradient><path fill="url(#a)" d="M29.5 18h-3c-.3 0-.5.2-.5.5s.2.5.5.5h3c.3 0 .5-.2.5-.5s-.2-.5-.5-.5z"></path><linearGradient id="b" x1="1" x2="27.007" y1="20.499" y2="20.499" gradientUnits="userSpaceOnUse"><stop offset="0" stop-color="#ea6434"></stop><stop offset="1" stop-color="#e57200"></stop></linearGradient><path fill="url(#b)" d="M28.5 20h-2c-.3 0-.5.2-.5.5s.2.5.5.5h2c.3 0 .5-.2.5-.5s-.2-.5-.5-.5z"></path><linearGradient id="c" x1="1" x2="27.007" y1="3.499" y2="3.499" gradientUnits="userSpaceOnUse"><stop offset="0" stop-color="#ea6434"></stop><stop offset="1" stop-color="#e57200"></stop></linearGradient><path fill="url(#c)" d="M2.5 4h6c.3 0 .5-.2.5-.5S8.8 3 8.5 3h-6c-.3 0-.5.2-.5.5s.2.5.5.5z"></path><linearGradient id="d" x1="1" x2="27.007" y1="5.499" y2="5.499" gradientUnits="userSpaceOnUse"><stop offset="0" stop-color="#ea6434"></stop><stop offset="1" stop-color="#e57200"></stop></linearGradient><path fill="url(#d)" d="M6.5 5h-4c-.3 0-.5.2-.5.5s.2.5.5.5h4c.3 0 .5-.2.5-.5S6.8 5 6.5 5z"></path><linearGradient id="e" x1="1" x2="27" y1="16" y2="16" gradientUnits="userSpaceOnUse"><stop offset="0" stop-color="#ea6434"></stop><stop offset="1" stop-color="#e57200"></stop></linearGradient><path fill="url(#e)" d="M25.9 25.7c0-.1 0-.1-.1-.2-.1-.2-.1-.3-.2-.5v-.1c-.5-1.2-1.5-2.2-2.8-2.6l-4.3-1.4v-.1c1.1-.1 2.1-.3 3.1-.6l1.1-.3c.2-.1.4-.3.4-.5V11c0-4.4-3.6-8-8-8-1.4 0-2.8.4-4 1.1V2.5C11 1.7 10.3 1 9.5 1h-8C.7 1 0 1.7 0 2.5v4C0 7.3.7 8 1.5 8h3.8l1.9 1.2c-.1.6-.2 1.2-.2 1.8v8.5c0 .2.2.4.4.5l1.1.3c1 .3 2.1.5 3.1.6v.1l-4.3 1.4C6 22.8 5 23.8 4.5 25v.1c-.1.2-.1.3-.2.5v.2c0 .1-.1.3-.1.4-.2.2-.2.4-.2.6v3.7c0 .3.2.5.5.5h20.9c.3 0 .5-.2.5-.5v-3.7c0-.2 0-.4-.1-.7.1-.1.1-.2.1-.4zM8 12.5c0-.3.2-.5.5-.5H9v2h-.5c-.3 0-.5-.2-.5-.5v-1zm2 .5v-1c.6-.1 1.1-.5 1.5-1 .5.6 1.2 1 2 1H20v2c0 2.8-2.2 5-5 5s-5-2.2-5-5v-1zm12 .5c0 .3-.2.5-.5.5H21v-2h.5c.3 0 .5.2.5.5v1zm-9.4 7.3v-1.4c.7.3 1.6.5 2.4.5.9 0 1.7-.2 2.4-.5v1.4c0 1-1.6 2-2.4 2.4-.8-.4-2.4-1.4-2.4-2.4zm8.7-1.5c-.9.3-1.9.4-2.9.6V19c1.3-.9 2.2-2.3 2.5-3.9h.6c.2 0 .3 0 .5-.1v4.2l-.7.1zM5.5 7h-4c-.3 0-.5-.2-.5-.5v-4c0-.3.2-.5.5-.5h8c.3 0 .5.2.5.5v4c0 .3-.2.5-.5.5h-1c-.3 0-.5.2-.5.5v1.1L5.8 7.1C5.7 7 5.6 7 5.5 7zm3 3c.1 0 .2 0 .2-.1.2 0 .3-.2.3-.4V8h.5c.8 0 1.5-.7 1.5-1.5V5.3c1.2-.9 2.6-1.3 4-1.3 3.9 0 7 3.1 7 7v.1c-.2-.1-.3-.1-.5-.1h-8c-.8 0-1.5-.7-1.5-1.5v-1c0-.3-.2-.5-.5-.5s-.5.2-.5.5v1c0 .8-.7 1.5-1.5 1.5h-1c-.2 0-.3 0-.5.1V11c0-.4 0-.8.1-1.2l.1.1c.1.1.2.1.3.1zM8 19.1v-4.2c.2 0 .3.1.5.1h.6c.3 1.6 1.2 3 2.5 3.9v.9c-1-.1-1.9-.3-2.9-.6l-.7-.1zm-.5 4.2l4.3-1.4c.7 1.3 2.7 2.2 2.9 2.3h.4c.3-.1 2.2-1 2.9-2.3l4.3 1.4c.6.2 1.2.6 1.6 1-2.2.7-3.9 2.8-3.9 5.4v.3H10v-.3c0-2.5-1.7-4.7-4.1-5.3.5-.5 1-.9 1.6-1.1zM5 30v-3.2c0-.3 0-.5.1-.8v-.1c.1-.3.1-.5.3-.7 2.1.4 3.6 2.3 3.6 4.5v.3H5zm20 0h-4v-.3c0-2.2 1.6-4 3.7-4.5.1.2.2.5.3.7v.1c.1.3.1.5.1.8V30z"></path><linearGradient id="f" x1="1" x2="27.007" y1="6.999" y2="6.999" gradientUnits="userSpaceOnUse"><stop offset="0" stop-color="#ea6434"></stop><stop offset="1" stop-color="#e57200"></stop></linearGradient><path fill="url(#f)" d="M25.5 11h.5v1.5c0 .2.1.4.3.5h.2c.1 0 .3-.1.4-.1l1.9-1.9h.8c.8 0 1.5-.7 1.5-1.5v-7C31 1.7 30.3 1 29.5 1h-4c-.8 0-1.5.7-1.5 1.5v7c0 .8.7 1.5 1.5 1.5zM25 2.5c0-.3.2-.5.5-.5h4c.3 0 .5.2.5.5v7c0 .3-.2.5-.5.5h-1c-.1 0-.3.1-.4.1L27 11.3v-.8c0-.3-.2-.5-.5-.5h-1c-.3 0-.5-.2-.5-.5v-7z"></path><linearGradient id="g" x1="1" x2="27.007" y1="18.499" y2="18.499" gradientUnits="userSpaceOnUse"><stop offset="0" stop-color="#ea6434"></stop><stop offset="1" stop-color="#e57200"></stop></linearGradient><path fill="url(#g)" d="M30.5 16h-.8l-2.9-1.9c-.2-.1-.4-.1-.5 0-.2.1-.3.3-.3.4V16h-.5c-.8 0-1.5.7-1.5 1.5v4c0 .8.7 1.5 1.5 1.5h5c.8 0 1.5-.7 1.5-1.5v-4c0-.8-.7-1.5-1.5-1.5zm.5 5.5c0 .3-.2.5-.5.5h-5c-.3 0-.5-.2-.5-.5v-4c0-.3.2-.5.5-.5h1c.3 0 .5-.2.5-.5v-1.1l2.2 1.5c.1.1.2.1.3.1h1c.3 0 .5.2.5.5v4z"></path><linearGradient id="h" x1="1" x2="27.007" y1="4.999" y2="4.999" gradientUnits="userSpaceOnUse"><stop offset="0" stop-color="#ea6434"></stop><stop offset="1" stop-color="#e57200"></stop></linearGradient><path fill="url(#h)" d="M26.5 5c.3 0 .5-.2.5-.5s.2-.5.5-.5.5.2.5.5c0 .2-.1.4-.3.4-.4.3-.7.8-.7 1.3v.3c0 .3.2.5.5.5s.5-.2.5-.5v-.3c0-.2.1-.3.2-.4.5-.2.8-.7.8-1.3 0-.8-.7-1.5-1.5-1.5S26 3.7 26 4.5c0 .3.2.5.5.5z"></path><linearGradient id="i" x1="1" x2="27.007" y1="8.499" y2="8.499" gradientUnits="userSpaceOnUse"><stop offset="0" stop-color="#ea6434"></stop><stop offset="1" stop-color="#e57200"></stop></linearGradient><circle cx="27.5" cy="8.5" r=".5" fill="url(#i)"></circle></svg>