<svg width="15" height="15.069" viewBox="0 0 15 15.069"><g transform="translate(-88.707 -12)"><g transform="translate(-1008 -51)"><path d="M2129.036,80.016a15.986,15.986,0,0,0,5.313,4.165,8.277,8.277,0,0,0,2.976.88c.072,0,.14.006.212.006a2.464,2.464,0,0,0,1.911-.821.066.066,0,0,0,.013-.016,7.993,7.993,0,0,1,.6-.624c.147-.14.3-.287.44-.437a1.507,1.507,0,0,0-.007-2.245l-1.876-1.877a1.52,1.52,0,0,0-1.1-.506,1.57,1.57,0,0,0-1.11.5l-1.117,1.117q-.151-.086-.309-.159a3.891,3.891,0,0,1-.343-.187,11.822,11.822,0,0,1-2.823-2.577,6.812,6.812,0,0,1-.952-1.523c.294-.266.569-.543.833-.815.094-.1.19-.194.287-.29a1.482,1.482,0,0,0,0-2.248l-.93-.93q-.16-.161-.317-.324c-.206-.212-.421-.431-.635-.627A1.557,1.557,0,0,0,2129,70a1.6,1.6,0,0,0-1.11.484l-1.166,1.168a2.4,2.4,0,0,0-.714,1.536,5.783,5.783,0,0,0,.434,2.5,14.537,14.537,0,0,0,2.593,4.33Zm-2.267-6.765a1.652,1.652,0,0,1,.5-1.062l1.162-1.159a.84.84,0,0,1,.571-.266.8.8,0,0,1,.563.272c.209.193.406.4.618.612l.324.331.934.929a.727.727,0,0,1,0,1.167l-.29.293c-.29.293-.562.571-.862.837l-.016.016a.61.61,0,0,0-.159.693c0,.01.006.016.01.025a7.348,7.348,0,0,0,1.1,1.784,12.486,12.486,0,0,0,3.014,2.742,4.439,4.439,0,0,0,.412.224,3.858,3.858,0,0,1,.343.187l.034.019a.655.655,0,0,0,.3.079.662.662,0,0,0,.466-.212l1.164-1.167a.826.826,0,0,1,.571-.278.784.784,0,0,1,.555.277l1.882,1.88a.752.752,0,0,1-.01,1.177c-.131.14-.269.274-.415.416a8.985,8.985,0,0,0-.653.677,1.714,1.714,0,0,1-1.34.569,1.293,1.293,0,0,1-.159-.006,7.519,7.519,0,0,1-2.692-.806,15.187,15.187,0,0,1-5.061-3.965,13.914,13.914,0,0,1-2.467-4.106,5.034,5.034,0,0,1-.4-2.179Z" transform="translate(-1029.295 -7)" fill="#4a4a4a"></path></g></g></svg>