<svg width="25" height="25" viewBox="0 0 25 25" fill="none" xmlns="http://www.w3.org/2000/svg"><path d="M7.21875 22.8802C8.04718 22.8802 8.71875 22.2086 8.71875 21.3802C8.71875 20.5518 8.04718 19.8802 7.21875 19.8802C6.39032 19.8802 5.71875 20.5518 5.71875 21.3802C5.71875 22.2086 6.39032 22.8802 7.21875 22.8802Z" fill="#FFFDF2"></path><path d="M18.4688 22.8802C19.2972 22.8802 19.9688 22.2086 19.9688 21.3802C19.9688 20.5518 19.2972 19.8802 18.4688 19.8802C17.6403 19.8802 16.9688 20.5518 16.9688 21.3802C16.9688 22.2086 17.6403 22.8802 18.4688 22.8802Z" fill="#FFFDF2"></path><path d="M4.10547 6.38019H20.4569C20.5667 6.38019 20.6753 6.40432 20.7748 6.45087C20.8742 6.49743 20.9623 6.56527 21.0327 6.6496C21.1031 6.73393 21.1541 6.8327 21.1821 6.93891C21.2101 7.04513 21.2145 7.1562 21.1948 7.26428L19.5594 16.2643C19.528 16.4371 19.4369 16.5934 19.3021 16.706C19.1672 16.8185 18.9971 16.8802 18.8215 16.8802H6.64783C6.47226 16.8802 6.30225 16.8186 6.16742 16.7061C6.0326 16.5937 5.9415 16.4375 5.91 16.2647L3.53588 3.24564C3.50438 3.07291 3.41329 2.91671 3.27846 2.80425C3.14363 2.69179 2.97362 2.63019 2.79805 2.63019H1.10547" stroke="#FFFDF2" stroke-width="1.5" stroke-linecap="round" stroke-linejoin="round"></path></svg>