<svg xmlns="http://www.w3.org/2000/svg" width="17" height="17" viewBox="0 0 18.916 18.916"><path d="M236.244,363.456a.788.788,0,1,1-.788-.788A.788.788,0,0,1,236.244,363.456Zm0,0" transform="translate(-225.998 -349.269)" fill="#646464"></path><path d="M9.458,18.916a9.458,9.458,0,1,1,9.458-9.458A9.468,9.468,0,0,1,9.458,18.916Zm0-17.733a8.276,8.276,0,1,0,8.276,8.276A8.285,8.285,0,0,0,9.458,1.182Zm0,0" fill="#646464"></path><path d="M168.682,93.8a.591.591,0,0,1-.591-.591v-.8a1.777,1.777,0,0,1,1.184-1.672,2.445,2.445,0,0,0,1.575-2.063,2.167,2.167,0,1,0-4.335,0,.591.591,0,0,1-1.182,0,3.35,3.35,0,1,1,6.7,0,3.627,3.627,0,0,1-2.364,3.179.591.591,0,0,0-.395.558v.8A.591.591,0,0,1,168.682,93.8Zm0,0" transform="translate(-159.224 -82.179)" fill="#646464"></path></svg>