<svg width="24" height="24" fill="none" xmlns="http://www.w3.org/2000/svg"><path d="m2.907 3.427 2.034.353L5.883 15a1.76 1.76 0 0 0 1.76 1.617h10.67a1.76 1.76 0 0 0 1.745-1.512l.928-6.414a1.312 1.312 0 0 0-1.11-1.485c-.062-.01-14.608-.014-14.608-.014M14.032 10.807h2.712" stroke="#323232" stroke-width="1.5" stroke-linecap="round" stroke-linejoin="round"/><path fill-rule="evenodd" clip-rule="evenodd" d="M7.214 20.007a.532.532 0 1 1 0 1.064.532.532 0 0 1 0-1.064ZM18.247 20.007a.533.533 0 1 1 0 1.066.533.533 0 0 1 0-1.066Z" fill="#323232" stroke="#323232" stroke-width="1.5" stroke-linecap="round" stroke-linejoin="round"/></svg>