<svg xmlns="http://www.w3.org/2000/svg" width="12" height="14" viewBox="0 0 12 14" fill="none"><script xmlns=""/>
<path d="M10.1671 2.09451H8.44291V0.974796C8.44292 0.921642 8.43234 0.86902 8.4118 0.819994C8.39126 0.770969 8.36118 0.726523 8.32329 0.689245C8.2854 0.651968 8.24046 0.622605 8.19111 0.60287C8.14176 0.583134 8.08897 0.57342 8.03583 0.574293C8.02001 0.573513 8.0045 0.578906 7.99257 0.589335C7.98434 0.581328 7.97384 0.576072 7.96249 0.574293H3.85217C3.79936 0.573533 3.74695 0.583373 3.69801 0.603231C3.64908 0.623089 3.60462 0.652562 3.56728 0.689904C3.52994 0.727247 3.50046 0.771701 3.48061 0.820635C3.46075 0.86957 3.45091 0.921991 3.45167 0.974796V2.09451H1.72086C1.60491 2.09312 1.48986 2.11494 1.38247 2.15867C1.27508 2.2024 1.17752 2.26717 1.09553 2.34916C1.01354 2.43115 0.948767 2.52871 0.905036 2.6361C0.861304 2.74349 0.839495 2.85854 0.840883 2.97449V4.41573H1.60428V12.6138C1.60211 12.7291 1.62322 12.8437 1.66634 12.9506C1.70947 13.0575 1.77372 13.1547 1.85526 13.2362C1.9368 13.3178 2.03395 13.382 2.14089 13.4251C2.24784 13.4683 2.36238 13.4894 2.47768 13.4872H9.41032C9.52595 13.4895 9.64085 13.4685 9.74821 13.4255C9.85557 13.3825 9.9532 13.3184 10.0353 13.2369C10.1174 13.1554 10.1822 13.0583 10.226 12.9512C10.2699 12.8442 10.2917 12.7295 10.2903 12.6138V4.41573H11.0424V2.97543C11.0439 2.8598 11.0223 2.74504 10.979 2.63785C10.9356 2.53067 10.8712 2.43321 10.7897 2.35118C10.7082 2.26915 10.6112 2.2042 10.5043 2.16013C10.3974 2.11606 10.2828 2.09375 10.1671 2.09451ZM4.25267 1.37436H7.6372V2.09451H4.25267V1.37436ZM9.48271 12.6138C9.48271 12.6646 9.46109 12.6862 9.41032 12.6862H2.47768C2.42691 12.6862 2.40528 12.6646 2.40528 12.6138V4.41573H9.48365L9.48271 12.6138ZM10.2348 3.61567H1.64846V2.97449C1.64846 2.92372 1.67009 2.89458 1.72086 2.89458H10.1662C10.217 2.89458 10.2386 2.92372 10.2386 2.97449L10.2348 3.61567Z" fill="#646464"/>
<path d="M8.10865 5.35449H7.40918V11.9741H8.10865V5.35449Z" fill="#646464"/>
<path d="M6.24634 5.35449H5.54688V11.9741H6.24634V5.35449Z" fill="#646464"/>
<path d="M4.38404 5.35449H3.68457V11.9741H4.38404V5.35449Z" fill="#646464"/>
</svg>