<svg xmlns="http://www.w3.org/2000/svg" width="43" height="25" viewBox="0 0 43 25" fill="none">
<path d="M15.6779 20.278H13.1175C12.8458 20.278 12.5853 20.1524 12.3932 19.9289C12.2012 19.7055 12.0933 19.4024 12.0933 19.0864V2.40297C12.0933 2.08691 12.2012 1.78381 12.3932 1.56033C12.5853 1.33685 12.8458 1.2113 13.1175 1.2113H32.5771V17.182" stroke="#cd8f5c" stroke-linecap="round" stroke-linejoin="round"/>
<path d="M42.2571 9.55294H32.5771V3.5946H39.0179C39.2597 3.5946 39.4961 3.66597 39.6963 3.79948C39.8966 3.933 40.0515 4.12256 40.1415 4.3437L42.2571 9.55294Z" stroke="#cd8f5c" stroke-linecap="round" stroke-linejoin="round"/>
<path d="M12.0933 13.1279H32.5771" stroke="#cd8f5c" stroke-linecap="round" stroke-linejoin="round"/>
<path d="M34.392 23.853C36.3968 23.853 38.0222 22.2523 38.0222 20.278C38.0222 18.3036 36.3968 16.703 34.392 16.703C32.3874 16.703 30.7622 18.3036 30.7622 20.278C30.7622 22.2523 32.3874 23.853 34.392 23.853Z" stroke="#cd8f5c" stroke-linecap="round" stroke-linejoin="round"/>
<path d="M30.7619 20.278H23.2651" stroke="#cd8f5c" stroke-linecap="round" stroke-linejoin="round"/>
<path d="M32.5771 17.182V9.55298H42.2571V19.0864C42.2571 19.4024 42.1297 19.7055 41.9027 19.929C41.6758 20.1524 41.368 20.278 41.0471 20.278H38.0222" stroke="#cd8f5c" stroke-linecap="round" stroke-linejoin="round"/>
<path d="M13.1821 0.902213L0.729492 0.739868V1.93623H12.5093L13.1821 0.902213Z" fill="url(#paint0_linear_7216:8602)"/>
<path d="M11.715 2.92786H2.50635V4.12422H11.715V2.92786Z" fill="url(#paint1_linear_7216:8602)"/>
<path d="M11.7147 5.11572H4.73926V6.31208H11.7147V5.11572Z" fill="url(#paint2_linear_7216:8602)"/>
<path d="M11.7157 7.30347H7.07275V8.49983H11.7157V7.30347Z" fill="url(#paint3_linear_7216:8602)"/>
<path d="M19.2956 23.853C21.3004 23.853 22.9256 22.2523 22.9256 20.278C22.9256 18.3036 21.3004 16.703 19.2956 16.703C17.2907 16.703 15.6655 18.3036 15.6655 20.278C15.6655 22.2523 17.2907 23.853 19.2956 23.853Z" stroke="#cd8f5c" stroke-linecap="round" stroke-linejoin="round"/>
<defs>
<linearGradient id="paint0_linear_7216:8602" x1="12.7858" y1="1.33806" x2="1.42766" y2="1.33806" gradientUnits="userSpaceOnUse">
<stop stop-color="#cd8f5c"/>
<stop offset="0.838542" stop-color="#cd8f5c" stop-opacity="0.28"/>
<stop offset="1" stop-color="#cd8f5c" stop-opacity="0"/>
</linearGradient>
<linearGradient id="paint1_linear_7216:8602" x1="11.4219" y1="3.52605" x2="3.02264" y2="3.52605" gradientUnits="userSpaceOnUse">
<stop stop-color="#cd8f5c"/>
<stop offset="0.838542" stop-color="#cd8f5c" stop-opacity="0.28"/>
<stop offset="1" stop-color="#cd8f5c" stop-opacity="0"/>
</linearGradient>
<linearGradient id="paint2_linear_7216:8602" x1="11.4927" y1="5.71391" x2="5.13034" y2="5.71391" gradientUnits="userSpaceOnUse">
<stop stop-color="#cd8f5c"/>
<stop offset="0.838542" stop-color="#cd8f5c" stop-opacity="0.28"/>
<stop offset="1" stop-color="#cd8f5c" stop-opacity="0"/>
</linearGradient>
<linearGradient id="paint3_linear_7216:8602" x1="11.5679" y1="7.90166" x2="7.33306" y2="7.90166" gradientUnits="userSpaceOnUse">
<stop stop-color="#cd8f5c"/>
<stop offset="0.838542" stop-color="#cd8f5c" stop-opacity="0.28"/>
<stop offset="1" stop-color="#cd8f5c" stop-opacity="0"/>
</linearGradient>
</defs>
</svg>